name C:\Users\u0150099\Documents\master_thesis\3dpredictsim\Results\debug\Fal_s1_mtjc3_sc_cspx10_oy2_TrackAnkleQSubtQ_MTc2_MTPm_k1_d01_MTJm_nl_MG_exp5_table_d01_PF_Natali2010_x5_ls146_ig21.mot
datacolumns 128
datarows 4
range 1.64745270 1.68040175
endheader
time	pelvis_tilt	pelvis_list	pelvis_rotation	pelvis_tx	pelvis_ty	pelvis_tz	hip_flexion_l	hip_adduction_l	hip_rotation_l	hip_flexion_r	hip_adduction_r	hip_rotation_r	knee_angle_l	knee_angle_r	ankle_angle_l	ankle_angle_r	subtalar_angle_l	subtalar_angle_r	mtj_angle_l	mtj_angle_r	mtp_angle_l	mtp_angle_r	lumbar_extension	lumbar_bending	lumbar_rotation	arm_flex_l	arm_add_l	arm_rot_l	arm_flex_r	arm_add_r	arm_rot_r	elbow_flex_l	elbow_flex_r	pro_sup_l	pro_sup_r	glut_med1_l/activation	glut_med2_l/activation	glut_med3_l/activation	glut_min1_l/activation	glut_min2_l/activation	glut_min3_l/activation	semimem_l/activation	semiten_l/activation	bifemlh_l/activation	bifemsh_l/activation	sar_l/activation	add_long_l/activation	add_brev_l/activation	add_mag1_l/activation	add_mag2_l/activation	add_mag3_l/activation	tfl_l/activation	pect_l/activation	grac_l/activation	glut_max1_l/activation	glut_max2_l/activation	glut_max3_l/activation	iliacus_l/activation	psoas_l/activation	quad_fem_l/activation	gem_l/activation	peri_l/activation	rect_fem_l/activation	vas_med_l/activation	vas_int_l/activation	vas_lat_l/activation	med_gas_l/activation	lat_gas_l/activation	soleus_l/activation	tib_post_l/activation	flex_dig_l/activation	flex_hal_l/activation	tib_ant_l/activation	per_brev_l/activation	per_long_l/activation	per_tert_l/activation	ext_dig_l/activation	ext_hal_l/activation	ercspn_l/activation	intobl_l/activation	extobl_l/activation	glut_med1_r/activation	glut_med2_r/activation	glut_med3_r/activation	glut_min1_r/activation	glut_min2_r/activation	glut_min3_r/activation	semimem_r/activation	semiten_r/activation	bifemlh_r/activation	bifemsh_r/activation	sar_r/activation	add_long_r/activation	add_brev_r/activation	add_mag1_r/activation	add_mag2_r/activation	add_mag3_r/activation	tfl_r/activation	pect_r/activation	grac_r/activation	glut_max1_r/activation	glut_max2_r/activation	glut_max3_r/activation	iliacus_r/activation	psoas_r/activation	quad_fem_r/activation	gem_r/activation	peri_r/activation	rect_fem_r/activation	vas_med_r/activation	vas_int_r/activation	vas_lat_r/activation	med_gas_r/activation	lat_gas_r/activation	soleus_r/activation	tib_post_r/activation	flex_dig_r/activation	flex_hal_r/activation	tib_ant_r/activation	per_brev_r/activation	per_long_r/activation	per_tert_r/activation	ext_dig_r/activation	ext_hal_r/activation	ercspn_r/activation	intobl_r/activation	extobl_r/activation	
          1.64745270	         -2.92487350	          0.88671593	         -4.27833632	          2.19111209	          0.90427158	          0.00438313	         28.80061555	          1.78213413	         -1.78025383	        -19.60804015	          1.30764211	          8.57056002	         -7.97913963	         -5.04699778	          1.52692134	          7.30427701	         -0.46117588	          4.80221592	          0.46363767	         -1.29353422	         -0.20584761	         13.14586077	         -2.76358705	          0.49629901	          1.65978444	         -6.69206385	        -13.47481366	          6.27120272	          3.92854802	        -13.94832120	         19.36395121	         24.74017033	         33.87205092	         86.51662706	         86.51662706	          0.05000010	          0.05000408	          0.05000038	          0.05915230	          0.05392057	          0.05000103	          0.30344829	          0.06519021	          0.06852151	          0.05000031	          0.05000037	          0.11785344	          0.14765046	          0.14187451	          0.12708058	          0.09314882	          0.05000025	          0.05001465	          0.07010262	          0.05000198	          0.05000557	          0.08239170	          0.05000059	          0.05000020	          0.19107861	          0.07403164	          0.05915295	          0.05000042	          0.05000673	          0.05001843	          0.05000105	          0.06377298	          0.05000010	          0.05790910	          0.05000057	          0.07638325	          0.05000448	          0.22538409	          0.05253461	          0.07123625	          0.18998710	          0.62368951	          0.19777378	          0.05652568	          0.11522209	          0.13295647	          0.39191222	          0.10996641	          0.09259472	          0.53526732	          0.27565614	          0.12250560	          0.05000079	          0.05000013	          0.05000009	          0.09794544	          0.12161023	          0.05000009	          0.05000009	          0.05000017	          0.05000055	          0.05000037	          0.70330332	          0.05000048	          0.05000043	          0.05011356	          0.05000244	          0.05000092	          0.37753295	          0.77159539	          0.05000030	          0.05000149	          0.06772976	          0.27332905	          0.05000038	          0.05000038	          0.05000038	          0.44811946	          0.56564233	          0.33060531	          0.42757603	          0.33281598	          0.50826215	          0.05000000	          0.10147679	          0.26375274	          0.05000005	          0.05793036	          0.10080985	          0.05000001	          0.05000002	          0.05000002	
          1.65843572	         -2.92926354	          1.01954866	         -4.55565012	          2.20836948	          0.90395486	          0.00417022	         28.23542022	          2.15360807	         -1.68785424	        -19.62121156	          1.01739041	          8.39049091	         -7.45637357	         -6.77576774	          1.23087393	          6.55697956	         -0.68950943	          5.18711535	          0.83461446	         -2.44270478	         -1.48615388	         16.58174405	         -2.59777107	          0.26808098	          1.76214584	         -7.53529101	        -13.45372964	          5.95156806	          3.53172545	        -13.89070252	         19.23067513	         24.46164550	         35.23363386	         86.51662706	         86.51662706	          0.08763344	          0.05000011	          0.05265623	          0.05000010	          0.05000011	          0.05000035	          0.29127473	          0.05915258	          0.05915254	          0.05000026	          0.05000021	          0.09961839	          0.12480506	          0.20901392	          0.15551536	          0.12229721	          0.05000059	          0.05915194	          0.05925626	          0.06998000	          0.06998077	          0.11242454	          0.05000007	          0.05000007	          0.24322672	          0.06257748	          0.05000062	          0.05000004	          0.07273558	          0.07059248	          0.06134754	          0.06533587	          0.05561696	          0.05913426	          0.05817344	          0.06456512	          0.05596148	          0.24900620	          0.05580162	          0.08367282	          0.25019495	          0.66203374	          0.32041964	          0.05037406	          0.09739410	          0.11238448	          0.34247623	          0.09295160	          0.07826779	          0.45244732	          0.23300460	          0.10355064	          0.05000051	          0.05000009	          0.05000007	          0.08279060	          0.10279386	          0.05000011	          0.05000007	          0.05000008	          0.05000029	          0.05000022	          0.63155149	          0.05000037	          0.05000014	          0.05000084	          0.05000050	          0.05000035	          0.31911829	          0.76085415	          0.05000003	          0.05000014	          0.05725013	          0.23103766	          0.05000086	          0.05000071	          0.05000062	          0.37878311	          0.47812198	          0.27945162	          0.40607954	          0.33426373	          0.50550996	          0.05000000	          0.14461948	          0.25694871	          0.05000004	          0.05000001	          0.08521182	          0.05000000	          0.05000000	          0.05000002	
          1.66941874	         -2.93014356	          1.16364101	         -4.81572577	          2.22593760	          0.90374845	          0.00392474	         27.67812891	          2.52791594	         -1.56738356	        -19.52611713	          0.71319576	          8.18382088	         -7.59996252	         -8.64852874	          0.61415141	          5.55565079	         -0.95029064	          5.55727572	          1.19345350	         -3.67907627	         -2.66972435	         20.33551030	         -2.41609422	          0.02298414	          1.85802648	         -8.39683122	        -13.45071948	          5.83526947	          3.05092614	        -13.83657158	         19.04857038	         24.18517319	         36.62265839	         86.51662706	         86.51662706	          0.07407428	          0.05000035	          0.05000020	          0.05000018	          0.05000030	          0.05000023	          0.24860690	          0.05000011	          0.05000004	          0.05000014	          0.05665077	          0.08420474	          0.10549435	          0.21321288	          0.23066997	          0.14036367	          0.05000010	          0.05000067	          0.05008780	          0.05915250	          0.05915292	          0.14522131	          0.05000015	          0.05000094	          0.53789073	          0.09793923	          0.05266335	          0.06998046	          0.20547340	          0.22064341	          0.16316932	          0.06998043	          0.06998052	          0.05000000	          0.05000004	          0.06998048	          0.06998044	          0.27596288	          0.11824313	          0.07072637	          0.38012986	          0.68333880	          0.37433583	          0.05000000	          0.08232457	          0.09499553	          0.28948582	          0.07856944	          0.06615763	          0.38244138	          0.19695242	          0.08752853	          0.05000760	          0.05000035	          0.05000041	          0.06998064	          0.08688887	          0.10524993	          0.16025142	          0.05187795	          0.05001591	          0.07031481	          0.67696820	          0.05152256	          0.05000107	          0.05000077	          0.05000060	          0.05000092	          0.26974197	          0.66139163	          0.05000012	          0.05000156	          0.05915250	          0.23486808	          0.09611061	          0.16217757	          0.14084153	          0.32017498	          0.40414342	          0.23621280	          0.37170813	          0.36495648	          0.44708714	          0.05000000	          0.12224307	          0.23665933	          0.05000003	          0.05000001	          0.07202722	          0.05000000	          0.07034133	          0.06631680	
          1.68040175	         -2.92889431	          1.33019197	         -5.05872381	          2.24374435	          0.90363429	          0.00367607	         27.07937171	          2.85571369	         -1.38768869	        -19.33883190	          0.38810535	          7.93998483	         -8.28138979	        -10.59689728	         -0.31797432	          4.21300595	         -1.26601139	          5.86573304	          1.50209601	         -4.96887386	         -3.78039355	         24.37416064	         -2.22273154	         -0.24863768	          1.94410589	         -9.25872937	        -13.46739728	          5.89396904	          2.50185605	        -13.78761942	         18.85388667	         23.88988777	         38.03567077	         86.51662706	         86.51662706	          0.38525958	          0.05000006	          0.45156474	          0.15558584	          0.05000018	          0.32496398	          0.21567751	          0.05000006	          0.08646111	          0.05000002	          0.05000023	          0.07117607	          0.19099801	          0.18022310	          0.19497932	          0.20993115	          0.05000026	          0.05917320	          0.05059737	          0.05000007	          0.05000037	          0.19815877	          0.05915247	          0.05000020	          0.45466431	          0.08278538	          0.11664574	          0.05915257	          0.17368108	          0.18650387	          0.13792260	          0.05915255	          0.05915265	          0.05915254	          0.05000000	          0.05915259	          0.05915259	          0.38130845	          0.09994773	          0.05978307	          0.58259668	          0.80550144	          0.63880398	          0.05000000	          0.08923056	          0.08029712	          0.26348308	          0.06641260	          0.05592125	          0.32326740	          0.16647850	          0.07398547	          0.05000049	          0.05000014	          0.05000015	          0.05915273	          0.07344483	          0.16011079	          0.18712187	          0.05915178	          0.05016075	          0.05943567	          0.68081776	          0.05000249	          0.05000041	          0.05002524	          0.05003197	          0.05008885	          0.22800553	          0.66096652	          0.05000052	          0.05000027	          0.05000002	          0.19852757	          0.13708453	          0.13708458	          0.11904992	          0.27063514	          0.34161136	          0.19966420	          0.31419473	          0.30848805	          0.37791063	          0.05000000	          0.20932472	          0.22013326	          0.05000001	          0.05000000	          0.06088265	          0.05888645	          0.05945760	          0.05915259	
